<?xml version="1.0" encoding="UTF-8"?>
<svg version="1.1" xmlns="http://www.w3.org/2000/svg" width="500" height="500">
<path d="M0 0 C165 0 330 0 500 0 C500 165 500 330 500 500 C335 500 170 500 0 500 C0 335 0 170 0 0 Z " fill="#FEF8F8" transform="translate(0,0)"/>
<path d="M0 0 C0.67804688 0.50273437 1.35609375 1.00546875 2.0546875 1.5234375 C7.48140849 5.88529248 10.75226011 10.88588361 14 17 C14.81791016 15.71416016 14.81791016 15.71416016 15.65234375 14.40234375 C23.00527427 3.13323222 32.30319629 -6.0660931 46 -9 C60.79882958 -10.25707691 74.63125311 -9.20388741 86.78515625 0.09375 C96.10079116 8.11143931 101.07775147 17.89787812 103 30 C103.25402704 34.08788503 103.23405294 38.15945739 103.1953125 42.25390625 C103.1924826 43.39536606 103.18965271 44.53682587 103.18673706 45.71287537 C103.17561476 49.32952723 103.15052481 52.94592401 103.125 56.5625 C103.11495993 59.02668911 103.10583588 61.49088214 103.09765625 63.95507812 C103.07741004 69.97022748 103.03824551 75.98483094 103 82 C90.13 82 77.26 82 64 82 C63.96261719 78.49761719 63.92523438 74.99523437 63.88671875 71.38671875 C63.84053021 68.00099376 63.78928674 64.61538051 63.73754883 61.22973633 C63.7042598 58.87368539 63.67624039 56.51755394 63.65356445 54.16137695 C63.62009197 50.77780793 63.56777908 47.39497946 63.51171875 44.01171875 C63.50213387 42.42722176 63.50213387 42.42722176 63.49235535 40.81071472 C63.47256119 39.82992447 63.45276703 38.84913422 63.43237305 37.83862305 C63.42126999 36.97480515 63.41016693 36.11098724 63.39872742 35.22099304 C62.91500804 32.52657746 62.16465207 31.63139944 60 30 C56.91569222 29.4464063 55.52950319 29.66397381 52.87792969 31.34667969 C49.89649838 35.55913359 50.39622156 39.84972347 50.390625 44.890625 C50.37499512 45.83019043 50.35936523 46.76975586 50.34326172 47.73779297 C50.29072994 51.2416061 50.27240671 54.74586473 50.25 58.25 C50.1675 66.0875 50.085 73.925 50 82 C26.9 82 3.8 82 -20 82 C-20.3125 57.6875 -20.3125 57.6875 -20.38793945 50.01831055 C-20.42021926 48.01609412 -20.45359153 46.01389487 -20.48828125 44.01171875 C-20.49452515 42.9690686 -20.50076904 41.92641846 -20.50720215 40.85217285 C-20.52714233 39.85770142 -20.54708252 38.86322998 -20.56762695 37.83862305 C-20.58428154 36.54289619 -20.58428154 36.54289619 -20.60127258 35.22099304 C-21.08911992 32.50358385 -21.77633023 31.60495972 -24 30 C-27.4093712 29.63471023 -29.88023824 29.3859371 -32.9375 31.0625 C-34.6140629 34.11976176 -34.36528977 36.5906288 -34 40 C-30.63559456 43.98910049 -30.63559456 43.98910049 -22 44 C-22 56.54 -22 69.08 -22 82 C-37.98667501 82 -49.19878144 79.22102184 -60.859375 68.35546875 C-70.36822651 57.8922617 -73.69884263 45.26621542 -73.34765625 31.38671875 C-72.14011238 19.62334197 -65.71482175 8.42148523 -56.69921875 0.890625 C-39.15503186 -11.39792269 -17.70625284 -13.26116845 0 0 Z " fill="#181717" transform="translate(335,245)"/>
<path d="M0 0 C11.88 0 23.76 0 36 0 C36 38.94 36 77.88 36 118 C39.96 118 43.92 118 48 118 C41.24361515 133.84255758 28.41266776 145.09130215 12.75 151.9375 C10.84504636 152.65681843 8.92898796 153.34787055 7 154 C6.278125 154.24492187 5.55625 154.48984375 4.8125 154.7421875 C-10.57678037 158.99755669 -27.97432534 155.871408 -41.6628418 148.24707031 C-58.50820058 138.40642771 -68.97777989 123.83332541 -74 105 C-77.49205861 87.73506689 -74.14818395 71.01606141 -65 56 C-54.46300379 40.93270215 -39.17777369 30.35893644 -21 27 C-15.06 27 -9.12 27 -3 27 C-3 44.49 -3 61.98 -3 80 C-6.63 80.33 -10.26 80.66 -14 81 C-17.835331 82.68094668 -17.835331 82.68094668 -20 86 C-20.99966468 90.79366762 -20.59083969 94.65718252 -18.625 99.125 C-15.18823231 101.57983406 -12.67627687 101.60005754 -8.53515625 101.6640625 C-4.76878844 100.67749466 -3.39399298 99.0590992 -1 96 C-0.26680439 92.87392954 -0.30920083 89.81971826 -0.34057617 86.61987305 C-0.33009247 85.68280014 -0.31960876 84.74572723 -0.30880737 83.78025818 C-0.28006186 80.69040802 -0.28634847 77.60167865 -0.29296875 74.51171875 C-0.27985345 72.36650692 -0.26454975 70.22130743 -0.24714661 68.0761261 C-0.20726437 62.43559263 -0.19710403 56.79538197 -0.19311523 51.15472412 C-0.18378996 45.39666939 -0.14638015 39.63880481 -0.11132812 33.88085938 C-0.04671903 22.58720376 -0.01610202 11.29382906 0 0 Z " fill="#191717" transform="translate(155,171)"/>
<path d="M0 0 C12.87 0 25.74 0 39 0 C39 7.59 39 15.18 39 23 C41.7225 22.9175 44.445 22.835 47.25 22.75 C59.93523141 22.62418849 70.65460763 25.97523984 79.96875 34.8828125 C87.6433419 43.17527408 89.71040132 50.86872722 91 62 C89.85724609 62.60134766 89.85724609 62.60134766 88.69140625 63.21484375 C75.24290911 70.61907251 65.54226248 80.58931809 61.125 95.625 C59.9201048 100.70330064 59.32735215 105.79622963 59 111 C57.02 111 55.04 111 53 111 C52.98969254 110.41784225 52.97938507 109.83568451 52.96876526 109.23588562 C52.86071434 103.18521866 52.74611508 97.13470105 52.62768555 91.08422852 C52.5843322 88.82514567 52.54265742 86.56602997 52.50268555 84.30688477 C52.44499287 81.06256196 52.38129531 77.8184046 52.31640625 74.57421875 C52.29969376 73.56163498 52.28298126 72.54905121 52.26576233 71.50578308 C52.2358445 70.09465996 52.2358445 70.09465996 52.20532227 68.6550293 C52.18200584 67.41259712 52.18200584 67.41259712 52.15821838 66.14506531 C52.07459277 63.81446753 52.07459277 63.81446753 51 61 C49.741875 60.773125 48.48375 60.54625 47.1875 60.3125 C46.12595703 60.12107422 46.12595703 60.12107422 45.04296875 59.92578125 C42.93796649 59.80689128 42.93796649 59.80689128 41.39933777 61.20796204 C39.59815095 63.51462111 39.60579026 64.83878215 39.56762695 67.74682617 C39.54783279 68.70759567 39.52803864 69.66836517 39.50764465 70.6582489 C39.49805977 72.20993523 39.49805977 72.20993523 39.48828125 73.79296875 C39.47033005 74.85413406 39.45237885 75.91529938 39.43388367 77.00862122 C39.37965476 80.40154025 39.3458441 83.79431762 39.3125 87.1875 C39.2793381 89.4863479 39.2448495 91.78517706 39.20898438 94.08398438 C39.1214207 99.72267808 39.06145778 105.36071909 39 111 C26.13 111 13.26 111 0 111 C0 74.37 0 37.74 0 0 Z " fill="#181717" transform="translate(197,172)"/>
<path d="M0 0 C2.625 0.5625 2.625 0.5625 4.625 2.5625 C5.25 4.6875 5.25 4.6875 5.625 6.5625 C6.40875 6.68625 7.1925 6.81 8 6.9375 C10.625 7.5625 10.625 7.5625 12.625 9.5625 C13.25 12.1875 13.25 12.1875 12.625 15.5625 C10.31471482 18.65565432 7.83544633 21.40072136 4.625 23.5625 C1.56761019 23.59265177 0.60638612 22.54507973 -1.62890625 20.453125 C-2.39074219 19.58171875 -3.15257812 18.7103125 -3.9375 17.8125 C-4.70191406 16.95140625 -5.46632813 16.0903125 -6.25390625 15.203125 C-8.22386162 12.75065754 -9.83409742 10.29969436 -11.375 7.5625 C-4.53332482 0.75555414 -4.53332482 0.75555414 0 0 Z " fill="#262424" transform="translate(336.375,209.4375)"/>
<path d="M0 0 C2.9375 1.6875 2.9375 1.6875 5 4 C5.8125 7.25 5.8125 7.25 6 10 C4.125 9.8125 4.125 9.8125 2 9 C0.75 6.4375 0.75 6.4375 0 4 C-4.81692243 3.48152605 -4.81692243 3.48152605 -8.9375 5.5625 C-10.37630385 8.8632853 -10.32965235 11.43975457 -10 15 C-8.11340125 17.30662599 -8.11340125 17.30662599 -5 17.3125 C-4.01 17.209375 -3.02 17.10625 -2 17 C-1.34 16.01 -0.68 15.02 0 14 C-1.32 14 -2.64 14 -4 14 C-4 12.68 -4 11.36 -4 10 C0.455 10.99 0.455 10.99 5 12 C4.25749403 16.08378283 3.17076699 20.01939223 2 24 C-1.875 23.125 -1.875 23.125 -3 22 C-4.0725 21.9175 -5.145 21.835 -6.25 21.75 C-10.88881522 20.82223696 -12.3579964 19.92297504 -15 16 C-15.85669692 11.82099065 -16.02277251 7.87257615 -13.9375 4.0546875 C-9.68601602 -1.18374812 -6.34594808 -1.55609455 0 0 Z " fill="#2C2B2B" transform="translate(415,195)"/>
<path d="M0 0 C2.20800781 1.33691406 2.20800781 1.33691406 4 4 C4.50165652 7.71274006 4.32298923 11.37346759 4.171875 15.109375 C4.14401917 16.19132141 4.11616333 17.27326782 4.08746338 18.38800049 C3.9941124 21.84285967 3.87241204 25.29606022 3.75 28.75 C3.68172466 31.09239418 3.61529581 33.43484297 3.55078125 35.77734375 C3.38860652 41.51903467 3.20315022 47.25962072 3 53 C2.67 53 2.34 53 2 53 C2 40.46 2 27.92 2 15 C-0.97 15 -3.94 15 -7 15 C-9.5625 13.4375 -9.5625 13.4375 -11 11 C-11.56288002 7.05983987 -11.60396028 4.94217804 -9.4375 1.5625 C-6.05782196 -0.60396028 -3.94016013 -0.56288002 0 0 Z " fill="#F6F0F0" transform="translate(311,274)"/>
<path d="M0 0 C3.27081471 -0.02902429 6.5415963 -0.04680684 9.8125 -0.0625 C10.74126953 -0.07087891 11.67003906 -0.07925781 12.62695312 -0.08789062 C13.51962891 -0.09111328 14.41230469 -0.09433594 15.33203125 -0.09765625 C16.56530151 -0.10551147 16.56530151 -0.10551147 17.82348633 -0.11352539 C20 0 20 0 23 1 C23.31640625 3.24609375 23.31640625 3.24609375 23 6 C20.83984375 8.09765625 20.83984375 8.09765625 17.9375 10.0625 C16.93976563 10.74441406 15.94203125 11.42632812 14.9140625 12.12890625 C11.66221186 14.21689078 8.40936215 16.18167352 5 18 C4.375 16.125 4.375 16.125 4 14 C4.66 13.34 5.32 12.68 6 12 C6.24253813 9.78927023 6.24253813 9.78927023 6.125 7.375 C6.09792969 6.14910156 6.09792969 6.14910156 6.0703125 4.8984375 C6.04710937 4.27195313 6.02390625 3.64546875 6 3 C4.35 3 2.7 3 1 3 C0.67 2.01 0.34 1.02 0 0 Z " fill="#272626" transform="translate(446,251)"/>
<path d="M0 0 C2.16015625 0.59765625 2.16015625 0.59765625 4.66015625 2.72265625 C6.44725785 6.14793432 7.08860762 8.73403018 7.16015625 12.59765625 C5.72265625 14.53515625 5.72265625 14.53515625 4.16015625 15.59765625 C2.73463334 12.27143612 1.84931236 9.14188768 1.16015625 5.59765625 C0.06660719 4.30241277 0.06660719 4.30241277 -2.58984375 4.22265625 C-5.98786318 4.35290233 -5.98786318 4.35290233 -8.77734375 6.66015625 C-11.23479948 9.5208296 -11.23479948 9.5208296 -10.65234375 13.41015625 C-10.38421875 14.46203125 -10.11609375 15.51390625 -9.83984375 16.59765625 C-7.85984375 16.59765625 -5.87984375 16.59765625 -3.83984375 16.59765625 C-3.17984375 17.91765625 -2.51984375 19.23765625 -1.83984375 20.59765625 C-8.06519586 22.06244498 -8.06519586 22.06244498 -11.65234375 19.91015625 C-14.93140701 16.44371795 -15.86561761 15.01521869 -15.77734375 10.16015625 C-13.67602677 2.17515171 -7.72622146 -1.09297767 0 0 Z " fill="#2C2B2B" transform="translate(450.83984375,221.40234375)"/>
<path d="M0 0 C0 1.32 0 2.64 0 4 C-2.64 4.99 -5.28 5.98 -8 7 C-7.34 8.32 -6.68 9.64 -6 11 C-5.236875 10.67 -4.47375 10.34 -3.6875 10 C-1 9 -1 9 2 9 C2.33 9.99 2.66 10.98 3 12 C-2.75 15 -2.75 15 -5 15 C-4.67 16.65 -4.34 18.3 -4 20 C-0.7 19.01 2.6 18.02 6 17 C6 18.32 6 19.64 6 21 C4.39850114 21.67305018 2.79368971 22.33822227 1.1875 23 C0.29417969 23.37125 -0.59914063 23.7425 -1.51953125 24.125 C-4 25 -4 25 -7 25 C-9.31 18.4 -11.62 11.8 -14 5 C-2.25 0 -2.25 0 0 0 Z " fill="#282727" transform="translate(364,194)"/>
<path d="M0 0 C1.65 0 3.3 0 5 0 C5 5.94 5 11.88 5 18 C7.97 18 10.94 18 14 18 C14 18.99 14 19.98 14 21 C7.565 21.495 7.565 21.495 1 22 C0.67 14.74 0.34 7.48 0 0 Z " fill="#2D2C2C" transform="translate(377,191)"/>
<path d="M0 0 C0.99 0.33 1.98 0.66 3 1 C2.40149598 3.98965642 1.51087951 5.99778498 -0.28515625 8.453125 C-0.73310547 9.071875 -1.18105469 9.690625 -1.64257812 10.328125 C-2.11115234 10.96234375 -2.57972656 11.5965625 -3.0625 12.25 C-3.53494141 12.8996875 -4.00738281 13.549375 -4.49414062 14.21875 C-5.65723529 15.81653662 -6.82788601 17.40881803 -8 19 C-9.32 18.67 -10.64 18.34 -12 18 C-10.46906512 13.32800909 -7.89242605 9.97829995 -4.875 6.1875 C-4.40707031 5.59001953 -3.93914062 4.99253906 -3.45703125 4.37695312 C-2.30994435 2.91383208 -1.15568766 1.45633703 0 0 Z " fill="#272626" transform="translate(435,206)"/>
<path d="M0 0 C2.625 0.375 2.625 0.375 5 1 C4.43628586 4.26954202 3.50037734 5.82575883 1 8 C-0.32 7.34 -1.64 6.68 -3 6 C-2.42655063 3.13275314 -2.1385485 2.1385485 0 0 Z " fill="#F1EBEB" transform="translate(340,220)"/>
<path d="M0 0 C2.1875 0.3125 2.1875 0.3125 4 1 C3.75 2.875 3.75 2.875 3 5 C0.9375 6.25 0.9375 6.25 -1 7 C-1.66 5.68 -2.32 4.36 -3 3 C-1.75 1.4375 -1.75 1.4375 0 0 Z " fill="#F8F2F2" transform="translate(334,214)"/>
<path d="M0 0 C2.64 0 5.28 0 8 0 C5.47211993 2.79872437 3.79588866 4.45773019 0 5 C0 3.35 0 1.7 0 0 Z " fill="#EEE8E8" transform="translate(456,255)"/>
</svg>
